<svg xmlns="http://www.w3.org/2000/svg" width="600" height="400" viewBox="0 0 600 400"><rect width="100%" height="100%" fill="#DDDDDD"/><path fill="#999999" d="M165.685 172.625v8.51h-16.78v47.16h-10.36v-47.16h-16.78v-8.51zm15.33-1.54v21.94q2.31-2.15 5.08-3.5t6.51-1.35q3.23 0 5.73 1.1t4.18 3.08q1.67 1.98 2.54 4.74.87 2.75.87 6.06v25.14h-9.51v-25.14q0-3.62-1.66-5.6-1.65-1.99-5.04-1.99-2.47 0-4.62 1.12-2.16 1.12-4.08 3.04v28.57h-9.51v-57.21zm58.44 17.71h9.51v39.5h-5.81q-1.89 0-2.39-1.73l-.66-3.16q-2.42 2.46-5.35 3.99-2.92 1.52-6.89 1.52-3.23 0-5.72-1.1-2.48-1.1-4.17-3.1-1.7-2-2.56-4.76-.87-2.75-.87-6.06v-25.1h9.51v25.1q0 3.62 1.67 5.6 1.68 1.99 5.03 1.99 2.46 0 4.62-1.1 2.15-1.1 4.08-3.02zm28.41 39.5h-9.51v-39.5h5.82q1.85 0 2.42 1.73l.62 2.93q1.04-1.16 2.17-2.12 1.14-.96 2.43-1.66 1.29-.69 2.77-1.09 1.48-.41 3.25-.41 3.74 0 6.15 2.02 2.4 2.03 3.6 5.37.92-1.96 2.3-3.36 1.39-1.41 3.05-2.29 1.65-.89 3.52-1.31 1.87-.43 3.75-.43 3.28 0 5.82 1t4.27 2.93q1.73 1.92 2.64 4.7.9 2.77.9 6.35v25.14h-9.51v-25.14q0-3.77-1.65-5.68-1.66-1.91-4.85-1.91-1.47 0-2.72.51-1.25.5-2.19 1.44-.95.94-1.49 2.37-.53 1.42-.53 3.27v25.14h-9.55v-25.14q0-3.97-1.6-5.78t-4.68-1.81q-2.08 0-3.87 1.03-1.79 1.02-3.33 2.79zm64.49-27.95v17.71q1.62 1.96 3.52 2.77 1.91.81 4.03.81 2.19 0 3.94-.79t2.99-2.46q1.23-1.68 1.88-4.28.66-2.6.66-6.22 0-6.5-2.16-9.41-2.15-2.91-6.2-2.91-2.73 0-4.77 1.26-2.04 1.25-3.89 3.52m0-29.26v22.56q2.39-2.5 5.29-3.98 2.91-1.49 6.65-1.49 3.42 0 6.17 1.35 2.76 1.35 4.7 3.87 1.95 2.52 2.99 6.1 1.03 3.58 1.03 8.05 0 4.81-1.19 8.74t-3.41 6.72q-2.21 2.79-5.33 4.33t-6.93 1.54q-1.85 0-3.35-.37-1.5-.36-2.77-1.02-1.27-.65-2.33-1.6-1.06-.94-2.02-2.09l-.42 2.65q-.23 1-.79 1.43-.56.42-1.52.42h-6.28v-57.21zm42.43 19.44.65 3.12q1.2-1.19 2.52-2.21 1.33-1.02 2.81-1.74 1.49-.71 3.18-1.11 1.69-.41 3.7-.41 3.23 0 5.73 1.1 2.51 1.1 4.18 3.08 1.68 1.98 2.54 4.74.87 2.75.87 6.06v25.14h-9.51v-25.14q0-3.62-1.66-5.6-1.65-1.99-5.04-1.99-2.46 0-4.62 1.12t-4.08 3.04v28.57h-9.51v-39.5h5.81q1.85 0 2.43 1.73m56.05 27.57v-6.66q-4.12.19-6.93.71t-4.5 1.33-2.43 1.88q-.73 1.08-.73 2.35 0 2.51 1.48 3.58 1.49 1.08 3.87 1.08 2.93 0 5.07-1.06 2.13-1.06 4.17-3.21m-20.09-20.75-1.7-3.05q6.82-6.23 16.4-6.23 3.47 0 6.2 1.13 2.74 1.14 4.62 3.16 1.89 2.02 2.87 4.83t.98 6.16v24.95h-4.31q-1.35 0-2.08-.4-.73-.41-1.15-1.64l-.85-2.85q-1.5 1.35-2.93 2.37-1.42 1.02-2.96 1.71t-3.29 1.06-3.87.37q-2.51 0-4.62-.68-2.12-.67-3.66-2.02t-2.39-3.35q-.84-2-.84-4.66 0-1.5.5-2.98t1.63-2.83q1.14-1.35 2.95-2.54t4.44-2.08q2.64-.89 6.15-1.44 3.5-.56 8-.68v-2.31q0-3.96-1.69-5.87t-4.89-1.91q-2.31 0-3.83.54t-2.68 1.22q-1.15.67-2.09 1.21-.95.54-2.1.54-1 0-1.7-.52-.69-.52-1.11-1.21m38.61-8.55h9.55v39.5h-9.55zm10.86-11.51q0 1.23-.5 2.31t-1.33 1.88q-.83.81-1.94 1.29-1.12.48-2.39.48-1.23 0-2.33-.48t-1.91-1.29q-.8-.8-1.29-1.88-.48-1.08-.48-2.31 0-1.27.48-2.39.49-1.12 1.29-1.92.81-.81 1.91-1.29 1.1-.49 2.33-.49 1.27 0 2.39.49 1.11.48 1.94 1.29.83.8 1.33 1.92t.5 2.39m8.51-6.2h9.51v57.21h-9.51z"/></svg>